<svg xmlns="http://www.w3.org/2000/svg" xmlns:xlink="http://www.w3.org/1999/xlink" width="455" height="179.08" viewBox="0 0 455 179.08">
  <defs>
    <linearGradient id="linear-gradient" x1="0.512" y1="0.857" x2="0.479" y2="0.119" gradientUnits="objectBoundingBox">
      <stop offset="0.08" stop-color="#f15a29"/>
      <stop offset="0.5" stop-color="#8dc63f"/>
    </linearGradient>
  </defs>
  <g id="Group_168" data-name="Group 168" transform="translate(-140 31.08)">
    <g id="Logo_5" data-name="Logo 5" transform="translate(139.98 6.92)">
      <path id="Path_33" data-name="Path 33" d="M317.6,204.21" transform="translate(-85.986 -242.21)" fill="none" stroke="#231f20" stroke-miterlimit="10" stroke-width="1"/>
      <path id="Path_34" data-name="Path 34" d="M317.6,204.21" transform="translate(-85.986 -242.21)" fill="none" stroke="#231f20" stroke-miterlimit="10" stroke-width="1"/>
      <path id="Path_35" data-name="Path 35" d="M220.228,272.492c-.458-6.371-5.591-7.065-5.591-7.065s-7.743-1.694-9.454,5.811v5.083H202.59v3.236h2.067V303.9H202.59V306.6h8.743l-2.813-4.185V279.558H214.6a6.371,6.371,0,0,0,5.625-7.065Zm-3.3,1.694a2.829,2.829,0,0,1-1.982,1.948H208.52v-4.541a3.965,3.965,0,0,1,4.185-3.507,4.185,4.185,0,0,1,4.134,3.507Z" transform="translate(-165.837 -199.821)" fill="#5d53a3"/>
      <path id="Path_36" data-name="Path 36" d="M209.832,279.572v-3.236h-2.643v-5.083c-1.694-7.438-9.471-5.811-9.471-5.811s-5.083.695-5.591,7.065a6.387,6.387,0,0,0,5.642,7.065h6.083v22.89l-2.813,4.185h8.743v-2.694H207.7V279.572Zm-5.93-3.541h-6.438a2.863,2.863,0,0,1-1.982-1.948v-2.508a4.2,4.2,0,0,1,4.219-3.524,3.982,3.982,0,0,1,4.2,3.507Z" transform="translate(-173.13 -199.801)" fill="#5d53a3"/>
      <path id="Path_37" data-name="Path 37" d="M218.879,263.089a22.72,22.72,0,0,1,20.653,14.164v.119c.373,1.05,5.083,15.249-5.642,23.059a1.339,1.339,0,0,0-.542,1.067v6.608a1.321,1.321,0,0,0,.474,1.017l4.083,3.389a1.338,1.338,0,0,0,1.694,0l7.692-7.235a1.338,1.338,0,0,0,0-1.965l-3.541-3.27a1.338,1.338,0,0,1-.288-1.694l3.27-6.066a1.3,1.3,0,0,1,1.169-.712h5.083a1.338,1.338,0,0,0,1.338-1.355l-.169-11.047a1.355,1.355,0,0,0-1.355-1.322h-5.185a1.355,1.355,0,0,1-1.186-.712l-3.2-6.032a1.372,1.372,0,0,1,.254-1.593l4.32-4.287a1.355,1.355,0,0,0,0-1.931l-8.065-7.59a1.339,1.339,0,0,0-1.83,0l-4.592,4.287a1.338,1.338,0,0,1-1.525.22l-6.4-3.27a1.339,1.339,0,0,1-.729-1.2v-4.947a1.338,1.338,0,0,0-1.338-1.338H211.9a1.338,1.338,0,0,0-1.338,1.338v4.947a1.355,1.355,0,0,1-.745,1.2l-6.4,3.27a1.339,1.339,0,0,1-1.525-.22l-4.592-4.287a1.338,1.338,0,0,0-1.83,0l-8.048,7.59a1.338,1.338,0,0,0,0,1.931l4.337,4.287a1.355,1.355,0,0,1,.237,1.593l-3.2,6.032a1.322,1.322,0,0,1-1.186.712h-5.185a1.355,1.355,0,0,0-1.339,1.322l-.169,11.047a1.338,1.338,0,0,0,1.339,1.355h5.083a1.355,1.355,0,0,1,1.186.712l3.253,6.066a1.338,1.338,0,0,1-.288,1.694l-3.643,3.27a1.339,1.339,0,0,0,0,1.965l7.692,7.235a1.338,1.338,0,0,0,1.779,0l4.083-3.389a1.322,1.322,0,0,0,.474-1.017V301.5a1.322,1.322,0,0,0-.525-1.067c-10.691-7.794-6.015-22.026-5.659-23.059v-.119a22.72,22.72,0,0,1,20.654-14.164Z" transform="translate(-180.89 -210.8)" fill="url(#linear-gradient)"/>
      <rect id="Rectangle_37" data-name="Rectangle 37" width="16.689" height="2.829" transform="translate(28.4 109.048)" fill="#5d53a3"/>
      <rect id="Rectangle_38" data-name="Rectangle 38" width="11.098" height="1.982" transform="translate(31.161 114.284)" fill="#5d53a3"/>
    </g>
    <g id="Group_164" data-name="Group 164">
      <text id="SMILE" transform="translate(222.241 116.743)" fill="#fff" stroke="#fff" stroke-miterlimit="10" stroke-width="3" font-size="95" font-family="Cano" letter-spacing="0.1em"><tspan x="0" y="0">SMILE</tspan></text>
      <text id="SMart_and_Innovative_Laboratory_for_Energy_device" data-name="SMart and Innovative Laboratory for Energy device" transform="translate(222 125)" fill="#fff" font-size="13" font-family="Roboto-Medium, Roboto" font-weight="500"><tspan x="0" y="12">SMart and Innovative Laboratory for Energy device</tspan></text>
    </g>
    <g id="Group_165" data-name="Group 165">
      <text id="SMILE-2" data-name="SMILE" transform="translate(222.241 116.743)" stroke="#000" stroke-miterlimit="10" stroke-width="3" font-size="95" font-family="Cano" letter-spacing="0.1em"><tspan x="0" y="0">SMILE</tspan></text>
      <text id="SMart_and_Innovative_Laboratory_for_Energy_device-2" data-name="SMart and Innovative Laboratory for Energy device" transform="translate(222 125)" font-size="13" font-family="Roboto-Medium, Roboto" font-weight="500"><tspan x="0" y="12">SMart and Innovative Laboratory for Energy device</tspan></text>
    </g>
  </g>
</svg>
